<svg width="336" height="335" viewBox="0 0 336 335" fill="none" xmlns="http://www.w3.org/2000/svg">
<path d="M234.068 48.9305C234.688 50.0574 242.164 86.4725 242.313 88.9375C253.482 91.9631 264.825 94.5783 276.066 97.3502C278.933 98.0573 281.815 98.5986 284.673 99.3691L284.789 99.7043C273.095 99.4761 261.391 99.6754 249.695 99.7007C244.475 99.7119 239.188 99.8925 233.977 99.6197L233.907 68.8769C233.878 62.2398 233.615 55.5544 234.068 48.9305Z" fill="#026C0D"/>
<path d="M54.3574 233.115C58.0911 232.506 64.7114 232.927 68.7147 232.939C79.2316 232.969 89.753 233.087 100.269 232.933C99.9699 252.032 100.361 271.152 100.218 290.255C100.175 296.041 100.297 301.863 100.064 307.643L99.9521 307.781C99.5366 307.047 91.0144 247.305 90.5203 241.744C82.5139 239.967 74.5799 237.987 66.5997 236.111C62.6795 235.189 58.0819 234.585 54.3574 233.115Z" fill="#01C515"/>
<path d="M124.773 8.06062C128.203 7.78089 131.757 7.90783 135.198 7.91443L150.702 7.92155L201.86 7.91587C207.212 7.9163 212.996 7.26362 217.09 11.4531C218.639 13.0379 219.837 15.2231 220.177 17.4216C220.78 21.3255 220.506 25.5009 220.502 29.4425L220.483 48.8805C220.477 70.4523 220.681 92.0416 220.455 113.611C220.52 113.609 220.586 113.607 220.652 113.605C226.584 113.493 232.567 113.73 238.507 113.74L281.962 113.754L304.423 113.734C308.19 113.732 312.341 113.405 316.056 113.904C318.291 114.205 320.888 115.424 322.485 117.014C324.135 118.658 325.541 121.007 325.951 123.32C326.465 126.217 326.205 129.537 326.205 132.486L326.2 148.26L326.192 203.22C326.156 208.232 326.268 212.344 322.382 216.089C320.923 217.494 319.035 218.443 317.069 218.901C312.787 219.898 301.841 219.333 296.995 219.23C286.4 210.51 276.212 201.355 265.941 192.264C251.746 179.194 216.099 147.534 213.971 128.151C213.578 124.567 213.902 120.872 213.7 117.261C213.13 107.083 210.375 96.6325 205.871 87.489C203.177 82.0203 199.561 77.9367 194.36 74.742C191.897 73.2294 189.379 71.8163 187.532 69.5309C184.059 65.2334 181.805 57.5261 178.133 52.3922C177.102 50.9494 175.108 48.3947 173.153 48.231C172.487 48.1752 172.284 48.3759 171.822 48.7814C170.789 51.0343 171.676 54.5461 171.834 56.9744C172.026 59.9163 172.232 63.2364 170.164 65.5863C169.98 65.6635 169.811 65.8066 169.611 65.8179C167.561 65.9336 157.92 51.7421 153.272 49.9623C151.264 49.1934 149.884 49.6366 148.012 50.4997C149.171 56.4555 151.834 65.0539 151.208 71.0085C150.409 78.6068 141.832 78.3178 137.17 82.6431C133.155 86.3675 130.448 91.1406 126.974 95.3167C123.483 99.514 118.95 103.045 114.717 106.475L114.739 46.036L114.736 28.3457C114.736 24.7321 114.548 20.998 114.985 17.4112C115.185 15.7669 115.863 14.2389 116.814 12.8899C118.736 10.1634 121.533 8.62247 124.773 8.06062Z" fill="#026C0D"/>
<path d="M20.6661 113.597C28.2462 113.239 36.0059 113.556 43.6019 113.552H89.1893C95.6127 113.56 102.14 113.857 108.551 113.556C108.838 116.74 113.729 129.767 115.542 132.588C120.203 139.84 129.597 138.897 136.948 140.543C140.01 141.229 142.803 142.644 144.51 145.372C146.182 148.043 146.569 151.496 146.729 154.59C147.652 172.494 138.396 187.875 134.376 204.798C131.307 217.721 134.62 228.916 142.291 239.54C144.55 242.669 147.338 245.458 149.358 248.748C151.059 246.446 153.237 244.364 155.218 242.301C160.007 237.312 165.047 232.541 169.78 227.508C173.996 223.027 177.37 217.994 181.916 213.743C184.792 211.053 191.938 206.887 193.55 204.795C195.964 201.66 200.296 189.826 202.103 185.514C204.846 178.971 208.036 172.39 210.314 165.674C214.25 173.735 216.685 182.826 218.898 191.511C222.218 184.071 225.32 176.519 228.611 169.061C235.932 184.452 235.083 197.691 231.618 214.011C235.821 218.275 241.49 221.01 245.236 225.708C247.257 228.241 248.437 230.966 249.424 234.015C251.93 241.761 255.579 243.992 261.801 248.465C267.097 252.18 272.468 255.829 278.077 259.062C282.576 261.656 287.319 263.63 291.488 266.775C291.694 267.193 291.635 267.647 291.559 268.094C290.913 271.884 287.426 277.411 285.179 280.542C281.281 285.975 275.667 290.689 269.167 292.576C254.531 296.825 228.888 286.621 216.971 295.446C209.771 300.778 206.211 316.487 204.857 325.12L149.876 325.067L134.049 325.087C130.868 325.091 127.518 325.284 124.362 324.875C121.545 324.51 118.869 322.715 117.176 320.479C115.59 318.384 114.976 316.256 114.738 313.654C114.152 307.251 114.606 300.435 114.611 293.986L114.646 256.138L114.631 232.249C114.608 228.162 114.174 223.604 114.721 219.566C106.705 219.384 98.6618 219.507 90.6431 219.505L48.0492 219.51L29.9944 219.527C26.6663 219.529 23.215 219.726 19.9075 219.388C17.8687 219.179 15.4709 218.598 13.8406 217.293C11.1031 215.101 9.40447 212.382 9.02911 208.852C8.53685 204.223 8.86077 199.314 8.85685 194.648L8.84337 167.768L8.85636 139.725C8.86206 134.807 8.54257 129.63 9.0599 124.74C9.33633 122.128 9.80245 120.045 11.4927 117.984C13.8731 115.083 17.0328 113.923 20.6661 113.597Z" fill="#01C515"/>
</svg>
